Coordinates
version=1
nRows=12
nColumns=24
inDegrees=yes

Units are S.I. units (second, meters, Newtons, ...)
Angles are in degrees.

endheader
time	torso_tilt	torso_list	torso_rotation	torso_tx	torso_ty	torso_tz	lumbar_extension	lumbar_bending	lumbar_rotation	hip_flexion_r	hip_adduction_r	hip_rotation_r	knee_angle_r	ankle_angle_r	subtalar_angle_r	mtp_angle_r	hip_flexion_l	hip_adduction_l	hip_rotation_l	knee_angle_l	ankle_angle_l	subtalar_angle_l	mtp_angle_l
     13.81000000	    -46.50115515	      2.88972710	      1.22159318	      0.18424245	      0.92408995	      0.01271784	     21.15377784	     -1.56464002	     -0.60006183	     82.40779846	    -11.96551684	     -3.54730293	    -96.09244572	     38.64876178	      8.28463363	      0.00000000	     84.62115889	     -9.67795978	     -5.08152146	    -93.21606089	     37.10635105	      7.78626024	      0.00000000
     13.82000000	    -47.03789418	      2.86049945	      1.06414251	      0.18502304	      0.91733053	      0.01248443	     21.19112042	     -1.49319298	     -0.46928712	     83.62144862	    -11.97200321	     -3.44396578	    -96.93791815	     38.75544155	      8.27053771	      0.00000000	     85.88364999	     -9.73101695	     -4.95159159	    -94.06477949	     37.21713375	      7.73911905	      0.00000000
     13.83000000	    -47.57428457	      2.84465020	      0.92457308	      0.18584945	      0.91049838	      0.01227220	     21.21123322	     -1.40975082	     -0.38367343	     84.85591742	    -11.94857488	     -3.29824038	    -97.77284041	     38.84915280	      8.24765010	      0.00000000	     87.14716663	     -9.79553732	     -4.84846992	    -94.91113393	     37.34450814	      7.70544371	      0.00000000
     13.84000000	    -48.10082687	      2.83935946	      0.80857527	      0.18670450	      0.90399485	      0.01208150	     21.24296472	     -1.34010678	     -0.30666336	     86.03044068	    -11.94430635	     -3.16061375	    -98.54012212	     38.93148896	      8.23381031	      0.00000000	     88.33832551	     -9.84754069	     -4.76577628	    -95.69019622	     37.44436657	      7.65101571	      0.00000000
     13.85000000	    -48.61817589	      2.83247672	      0.69860950	      0.18747650	      0.89754871	      0.01189822	     21.29696859	     -1.26142905	     -0.22961940	     87.17293715	    -11.94135872	     -3.01488081	    -99.30477248	     39.00106788	      8.20355692	      0.00000000	     89.49002302	     -9.86848503	     -4.67806852	    -96.46274862	     37.55087542	      7.55844753	      0.00000000
     13.86000000	    -49.11160421	      2.81876814	      0.59223423	      0.18820082	      0.89125779	      0.01168883	     21.34465425	     -1.22632146	     -0.13519243	     88.25590627	    -11.94362676	     -2.92678838	   -100.03986738	     39.05699449	      8.15214442	      0.00000000	     90.62248350	     -9.86575644	     -4.53189943	    -97.21794226	     37.64755919	      7.46211160	      0.00000000
     13.87000000	    -49.53883801	      2.79490314	      0.39040187	      0.18878542	      0.88517036	      0.01130550	     21.29365433	     -1.05471926	      0.08893696	     89.40584035	    -12.06468724	     -2.75907123	   -100.77768500	     39.12805749	      8.17255730	      0.00000000	     91.75865457	     -9.72203625	     -4.46096733	    -97.93426791	     37.69753812	      7.26068056	      0.00000000
     13.88000000	    -50.02325816	      2.82180243	      0.27982088	      0.18950449	      0.87924295	      0.01110090	     21.38135045	     -1.10453320	      0.28271603	     90.37137460	    -12.18134488	     -2.74759500	   -101.45153752	     39.20689789	      8.17343500	      0.00000000	     92.81703692	     -9.61061754	     -4.27923229	    -98.61603164	     37.74729668	      7.10287234	      0.00000000
     13.89000000	    -50.51041879	      2.85076211	      0.18672669	      0.19014017	      0.87322660	      0.01090928	     21.49722036	     -1.15248603	      0.48481877	     91.32456016	    -12.33329447	     -2.72532633	   -102.14435845	     39.28373183	      8.17208589	      0.00000000	     93.84762869	     -9.46350908	     -4.10869141	    -99.29271291	     37.78785449	      6.93661159	      0.00000000
     13.90000000	    -50.99162659	      2.88110328	      0.14085670	      0.19068988	      0.86726273	      0.01074870	     21.65774344	     -1.23735250	      0.64172554	     92.20126123	    -12.46229488	     -2.72155663	   -102.82852002	     39.37804437	      8.14586714	      0.00000000	     94.81944573	     -9.32945096	     -3.92941340	    -99.96474693	     37.85432221	      6.82132230	      0.00000000
     13.91000000	    -51.47990328	      2.91410423	      0.08042087	      0.19124367	      0.86160567	      0.01056218	     21.90558915	     -1.30569124	      0.79723807	     92.96329227	    -12.59324869	     -2.71434349	   -103.46271970	     39.46035393	      8.13664300	      0.00000000	     95.66391854	     -9.22041533	     -3.78670135	   -100.58796621	     37.94703374	      6.69007249	      0.00000000
     13.92000000	    -51.94498536	      2.94241408	      0.01529077	      0.19178599	      0.85603579	      0.01041402	     22.12053833	     -1.33442694	      0.87055923	     93.74065059	    -12.63022193	     -2.67410217	   -104.07211101	     39.53994013	      8.12878947	      0.00000000	     96.50513362	     -9.23178705	     -3.69727741	   -101.22059398	     37.98870354	      6.57859128	      0.00000000
